<svg width="72" height="72" viewBox="0 0 72 72" fill="none" xmlns="http://www.w3.org/2000/svg">
<g clip-path="url(#clip0_420_437)">
<path d="M36.0312 71.0625C55.4475 71.0625 71.1875 55.3225 71.1875 35.9062C71.1875 16.49 55.4475 0.75 36.0312 0.75C16.615 0.75 0.875 16.49 0.875 35.9062C0.875 55.3225 16.615 71.0625 36.0312 71.0625Z" fill="#F0F0F0"/>
<path d="M71.1875 35.9062C71.1875 20.7903 61.6469 7.90401 48.2594 2.93668V68.8759C61.6469 63.9085 71.1875 51.0222 71.1875 35.9062V35.9062Z" fill="#D80027"/>
<path d="M0.875 35.9062C0.875 51.0222 10.4157 63.9085 23.8031 68.8758V2.93668C10.4157 7.90401 0.875 20.7903 0.875 35.9062Z" fill="#0052B4"/>
</g>
<defs>
<clipPath id="clip0_420_437">
<rect width="70.3125" height="70.3125" fill="white" transform="translate(0.875 0.75)"/>
</clipPath>
</defs>
</svg>
