<svg width="50" height="51" viewBox="0 0 50 51" fill="none" xmlns="http://www.w3.org/2000/svg">
<g clip-path="url(#clip0_412_296)">
<path d="M49.1388 32.3399C49.6992 30.2604 50 28.0746 50 25.8181C50 23.5615 49.6992 21.3758 49.1388 19.2963L22.8261 0.913208C17.9412 1.33411 13.4585 3.1593 9.78262 5.98362L0.86123 19.2963C0.300781 21.3758 0 23.5615 0 25.8181C0 28.0615 0.297168 30.2352 0.851367 32.3037L9.78252 45.6526C13.4584 48.4769 17.9411 50.3022 22.826 50.723L49.1388 32.3399Z" fill="#FFDA44"/>
<path d="M0.861237 32.3398C2.30772 37.7069 5.49571 42.3587 9.78262 45.6525V32.3398H0.861237Z" fill="#0052B4"/>
<path d="M22.8261 50.723C23.5427 50.7847 24.2674 50.8181 25 50.8181C36.5507 50.8181 46.27 42.984 49.1388 32.3398H22.8261V50.723Z" fill="#0052B4"/>
<path d="M49.1388 19.2963C46.27 8.6522 36.5507 0.818115 25 0.818115C24.2674 0.818115 23.5427 0.851514 22.8261 0.913232V19.2963H49.1388Z" fill="#0052B4"/>
<path d="M9.78262 5.98364C5.49571 9.27759 2.30772 13.9292 0.861237 19.2963H9.78262V5.98364Z" fill="#0052B4"/>
<path d="M49.7884 22.5573H19.5653H19.5652V1.41235C17.2549 1.92466 15.0646 2.75503 13.0435 3.85786V22.5572H0.211621C0.0724609 23.6247 0 24.7129 0 25.8181C0 26.9233 0.0724609 28.0116 0.211621 29.079H13.0434H13.0435V47.7783C15.0646 48.881 17.2549 49.7116 19.5652 50.2238V29.0793V29.0791H49.7884C49.9273 28.0116 50 26.9233 50 25.8181C50 24.7129 49.9273 23.6247 49.7884 22.5573V22.5573Z" fill="#D80027"/>
</g>
<defs>
<clipPath id="clip0_412_296">
<rect width="50" height="50" fill="white" transform="translate(0 0.818115)"/>
</clipPath>
</defs>
</svg>
