<svg width="72" height="72" viewBox="0 0 72 72" fill="none" xmlns="http://www.w3.org/2000/svg">
<g clip-path="url(#clip0_420_437)">
<path d="M36.0312 71.0625C55.4475 71.0625 71.1875 55.3225 71.1875 35.9062C71.1875 16.49 55.4475 0.75 36.0312 0.75C16.615 0.75 0.875 16.49 0.875 35.9062C0.875 55.3225 16.615 71.0625 36.0312 71.0625Z" fill="#6DA544"/>
<path d="M20.746 42.7847C20.746 45.3172 22.799 47.3702 25.3315 47.3702H39.0883C39.0883 49.4807 40.7992 51.1915 42.9097 51.1915H47.4952C49.6057 51.1915 51.3165 49.4807 51.3165 47.3702V42.7847H20.746Z" fill="#F0F0F0"/>
<path d="M51.6988 20.621V31.3207C51.6988 33.0064 50.3274 34.3778 48.6417 34.3778V38.9633C52.8559 38.9633 56.2844 35.5348 56.2844 31.3207V20.621H51.6988Z" fill="#F0F0F0"/>
<path d="M18.8354 31.3207C18.8354 33.0064 17.464 34.3777 15.7783 34.3777V38.9633C19.9925 38.9633 23.421 35.5347 23.421 31.3207V20.6209H18.8354V31.3207Z" fill="#F0F0F0"/>
<path d="M44.8203 20.621H49.4059V31.3207H44.8203V20.621Z" fill="#F0F0F0"/>
<path d="M37.9419 26.735C37.9419 27.1565 37.599 27.4993 37.1777 27.4993C36.7564 27.4993 36.4135 27.1563 36.4135 26.735V20.6208H31.8279V26.735C31.8279 27.1565 31.485 27.4993 31.0637 27.4993C30.6423 27.4993 30.2994 27.1563 30.2994 26.735V20.6208H25.7137V26.735C25.7137 29.685 28.1137 32.0849 31.0637 32.0849C32.1998 32.0849 33.2534 31.7279 34.1208 31.1214C34.988 31.7278 36.0417 32.0849 37.1778 32.0849C37.4066 32.0849 37.6316 32.0689 37.8528 32.0407C37.5279 33.3795 36.3221 34.3777 34.885 34.3777V38.9632C39.0992 38.9632 42.5276 35.5347 42.5276 31.3206V26.735V20.6208H37.9421V26.735H37.9419Z" fill="#F0F0F0"/>
<path d="M25.7137 34.3778H32.5921V38.9633H25.7137V34.3778Z" fill="#F0F0F0"/>
</g>
<defs>
<clipPath id="clip0_420_437">
<rect width="70.3125" height="70.3125" fill="white" transform="translate(0.875 0.75)"/>
</clipPath>
</defs>
</svg>
