<svg width="50" height="51" viewBox="0 0 50 51" fill="none" xmlns="http://www.w3.org/2000/svg">
<g clip-path="url(#clip0_412_296)">
<path d="M25 50.8181C38.8071 50.8181 50 39.6252 50 25.8181C50 12.011 38.8071 0.818115 25 0.818115C11.1929 0.818115 0 12.011 0 25.8181C0 39.6252 11.1929 50.8181 25 50.8181Z" fill="#D80027"/>
<path d="M39.1305 19.3737H30.0752C30.6342 18.7884 30.9782 17.9959 30.9782 17.1225C30.9782 15.3217 29.5183 13.8617 27.7174 13.8617C26.5828 13.8617 25.5841 14.4414 25 15.3204C24.4159 14.4414 23.4171 13.8617 22.2826 13.8617C20.4817 13.8617 19.0218 15.3217 19.0218 17.1225C19.0218 17.9959 19.3658 18.7885 19.9248 19.3737H10.8696C10.8696 21.775 12.9611 23.7215 15.3622 23.7215H15.2173C15.2173 26.1228 17.1639 28.0694 19.5652 28.0694C19.5652 28.8471 19.7702 29.5762 20.128 30.2075L16.5216 33.814L19.2886 36.5808L23.2136 32.6559C23.3673 32.7123 23.5264 32.7575 23.6906 32.7883L21.3188 38.1432L25 42.1225L28.6812 38.143L26.3094 32.7881C26.4737 32.7573 26.6327 32.7122 26.7864 32.6557L30.7114 36.5806L33.4784 33.8137L29.8719 30.2072C30.2298 29.5761 30.4348 28.8468 30.4348 28.0691C32.836 28.0691 34.7826 26.1226 34.7826 23.7212H34.6378C37.0389 23.7214 39.1305 21.775 39.1305 19.3737V19.3737Z" fill="black"/>
</g>
<defs>
<clipPath id="clip0_412_296">
<rect width="50" height="50" fill="white" transform="translate(0 0.818115)"/>
</clipPath>
</defs>
</svg>
