<svg width="50" height="51" viewBox="0 0 50 51" fill="none" xmlns="http://www.w3.org/2000/svg">
<g clip-path="url(#clip0_412_296)">
<path d="M25 50.8181C38.8071 50.8181 50 39.6252 50 25.8181C50 12.011 38.8071 0.818115 25 0.818115C11.1929 0.818115 0 12.011 0 25.8181C0 39.6252 11.1929 50.8181 25 50.8181Z" fill="#F0F0F0"/>
<path d="M42.4939 7.96108C37.9849 3.54311 31.8112 0.818115 25 0.818115C22.8261 0.818115 16.4654 3.54311 11.9565 7.96108H42.4939Z" fill="#6DA544"/>
<path d="M25 22.2468H49.7449C49.3842 19.7248 48.6476 17.3244 47.5928 15.1039H23.9131L25 22.2468Z" fill="#6DA544"/>
<path d="M2.40731 36.5325H47.5927C48.6475 34.3121 49.3842 31.9115 49.7449 29.3895H0.255066C0.615906 31.9116 1.35233 34.3122 2.40731 36.5325V36.5325Z" fill="#6DA544"/>
<path d="M7.50604 43.6752C12.0151 48.0931 18.1888 50.8181 25 50.8181C31.8112 50.8181 37.9849 48.0931 42.4939 43.6752H7.50604Z" fill="#6DA544"/>
<path d="M25 0.818115C12.4057 0.818115 1.98827 10.1317 0.255066 22.2467H25V0.818115Z" fill="#D80027"/>
<path d="M12.5 19.9848L11.4131 17.811V13.4631L14.1305 11.2892L16.8479 13.4631V16.724L17.9348 15.637V17.811L15.7608 19.9848H12.5Z" fill="#F0F0F0"/>
<path d="M6.6538 13.3181L6.94159 14.2039H7.87284L7.11942 14.7514L7.40731 15.6371L6.6538 15.0896L5.90028 15.6371L6.18817 14.7514L5.43475 14.2039H6.366L6.6538 13.3181Z" fill="#F0F0F0"/>
<path d="M8.82772 11.1442L9.11551 12.0299H10.0469L9.29334 12.5775L9.58113 13.4631L8.82772 12.9157L8.0743 13.4631L8.36219 12.5775L7.60867 12.0299H8.53983L8.82772 11.1442Z" fill="#F0F0F0"/>
<path d="M11.0016 8.97021L11.2894 9.85596H12.2206L11.4673 10.4035L11.755 11.2892L11.0016 10.7418L10.2481 11.2892L10.5359 10.4035L9.78259 9.85596H10.7137L11.0016 8.97021Z" fill="#F0F0F0"/>
<path d="M21.607 13.3181L21.3192 14.2039H20.3881L21.1414 14.7514L20.8536 15.6371L21.607 15.0896L22.3605 15.6371L22.0727 14.7514L22.826 14.2039H21.8949L21.607 13.3181Z" fill="#F0F0F0"/>
<path d="M19.4331 11.1442L19.1453 12.0299H18.2141L18.9675 12.5775L18.6797 13.4631L19.4331 12.9157L20.1866 13.4631L19.8987 12.5775L20.6521 12.0299H19.721L19.4331 11.1442Z" fill="#F0F0F0"/>
<path d="M17.2593 8.97021L16.9714 9.85596H16.0402L16.7935 10.4035L16.5057 11.2892L17.2593 10.7418L18.0127 11.2892L17.7249 10.4035L18.4782 9.85596H17.5471L17.2593 8.97021Z" fill="#F0F0F0"/>
<path d="M14.1305 7.8833L13.8426 8.76904H12.9114L13.6647 9.3165L13.3769 10.2021L14.1305 9.65478L14.8839 10.2021L14.5961 9.3165L15.3494 8.76904H14.4182L14.1305 7.8833Z" fill="#F0F0F0"/>
</g>
<defs>
<clipPath id="clip0_412_296">
<rect width="50" height="50" fill="white" transform="translate(0 0.818115)"/>
</clipPath>
</defs>
</svg>
