<svg width="72" height="72" viewBox="0 0 72 72" fill="none" xmlns="http://www.w3.org/2000/svg">
<g clip-path="url(#clip0_420_437)">
<path d="M36.0312 71.0625C55.4475 71.0625 71.1875 55.3225 71.1875 35.9062C71.1875 16.49 55.4475 0.75 36.0312 0.75C16.615 0.75 0.875 16.49 0.875 35.9062C0.875 55.3225 16.615 71.0625 36.0312 71.0625Z" fill="#F0F0F0"/>
<path d="M36.0313 0.75C22.0933 0.75 10.05 8.86134 4.36353 20.621H67.699C62.0126 8.86134 49.9693 0.75 36.0313 0.75V0.75Z" fill="#338AF3"/>
<path d="M36.0313 71.0625C49.9693 71.0625 62.0126 62.9512 67.6992 51.1915H4.36353C10.05 62.9512 22.0933 71.0625 36.0313 71.0625Z" fill="#338AF3"/>
<path d="M46.539 35.9062L42.2454 37.9259L44.5318 42.0841L39.8695 41.1922L39.2787 45.902L36.0313 42.438L32.7837 45.902L32.1931 41.1922L27.5308 42.084L29.817 37.9258L25.5236 35.9062L29.8172 33.8865L27.5308 29.7285L32.1929 30.6203L32.7839 25.9105L36.0313 29.3745L39.2789 25.9105L39.8695 30.6203L44.532 29.7285L42.2456 33.8867L46.539 35.9062Z" fill="#FFDA44"/>
</g>
<defs>
<clipPath id="clip0_420_437">
<rect width="70.3125" height="70.3125" fill="white" transform="translate(0.875 0.75)"/>
</clipPath>
</defs>
</svg>
