<svg width="72" height="72" viewBox="0 0 72 72" fill="none" xmlns="http://www.w3.org/2000/svg">
<g clip-path="url(#clip0_420_437)">
<path d="M71.1875 35.9062C71.1875 55.3224 55.4474 71.0625 36.0312 71.0625C16.6151 71.0625 0.875 55.3224 0.875 35.9062C0.875 35.9145 36.0312 0.753983 36.0312 0.75C55.4474 0.75 71.1875 16.4901 71.1875 35.9062Z" fill="#0052B4"/>
<path d="M36.0313 0.75C36.0294 0.75 36.0273 0.750137 36.0254 0.750137L36.0313 0.75Z" fill="#F0F0F0"/>
<path d="M35.9371 35.9063H36.0312C36.0312 35.8744 36.0312 35.8439 36.0312 35.8122C35.9999 35.8436 35.9686 35.875 35.9371 35.9063Z" fill="#F0F0F0"/>
<path d="M36.0313 19.0925C36.0313 12.9065 36.0313 8.85292 36.0313 0.750092H36.0253C16.6118 0.75325 0.875 16.4919 0.875 35.9062H19.2174V25.5774L29.5462 35.9062H35.9373C35.9688 35.8749 36.0001 35.8436 36.0314 35.8121C36.0314 33.4436 36.0314 31.3303 36.0314 29.4214L25.7025 19.0925H36.0313Z" fill="#F0F0F0"/>
<path d="M18.6612 5.33554C13.1627 8.46651 8.59154 13.0376 5.46057 18.5362V35.9062H14.6318V14.5069V14.5068H36.0313C36.0313 11.6142 36.0313 8.85858 36.0313 5.33554H18.6612Z" fill="#D80027"/>
<path d="M36.0313 31.583L23.5408 19.0927H19.2175C19.2175 19.0925 19.2175 19.0927 19.2175 19.0927L36.0311 35.9063H36.0313C36.0313 35.9063 36.0313 32.9255 36.0313 31.583Z" fill="#D80027"/>
<path d="M22.078 42.0204L24.0075 46.0549L28.3646 45.0478L26.4134 49.0719L29.9172 51.8504L25.5547 52.8337L25.5669 57.3057L22.078 54.5079L18.5893 57.3057L18.6016 52.8337L14.2389 51.8504L17.7428 49.0719L15.7914 45.0478L20.1487 46.0549L22.078 42.0204Z" fill="#F0F0F0"/>
<path d="M53.5112 49.6631L54.4759 51.6803L56.6545 51.1767L55.6788 53.1887L57.4308 54.5781L55.2495 55.0697L55.2555 57.3057L53.5112 55.9067L51.7668 57.3057L51.7729 55.0697L49.5917 54.5781L51.3436 53.1887L50.368 51.1767L52.5464 51.6803L53.5112 49.6631Z" fill="#F0F0F0"/>
<path d="M44.5365 28.2636L45.5011 30.281L47.6797 29.7773L46.7041 31.7893L48.456 33.1786L46.2748 33.6703L46.2807 35.9063L44.5365 34.5073L42.7921 35.9063L42.798 33.6703L40.6168 33.1786L42.3687 31.7893L41.3931 29.7773L43.5717 30.281L44.5365 28.2636Z" fill="#F0F0F0"/>
<path d="M53.5112 16.0353L54.4759 18.0526L56.6545 17.5491L55.6789 19.5611L57.4307 20.9503L55.2495 21.4421L55.2555 23.6781L53.5112 22.2791L51.7668 23.6781L51.7729 21.4421L49.5917 20.9503L51.3434 19.5611L50.368 17.5491L52.5464 18.0526L53.5112 16.0353Z" fill="#F0F0F0"/>
<path d="M61.3504 25.2065L62.315 27.2239L64.4936 26.7202L63.518 28.7322L65.2699 30.1216L63.0886 30.6133L63.0947 32.8492L61.3504 31.4503L59.6061 32.8492L59.612 30.6133L57.4308 30.1216L59.1827 28.7322L58.2071 26.7202L60.3856 27.2239L61.3504 25.2065Z" fill="#F0F0F0"/>
<path d="M55.745 35.9062L56.5037 38.2417H58.9594L56.9727 39.6851L57.7317 42.0204L55.745 40.5771L53.7584 42.0204L54.5171 39.6851L52.5305 38.2417H54.9861L55.745 35.9062Z" fill="#F0F0F0"/>
</g>
<defs>
<clipPath id="clip0_420_437">
<rect width="70.3125" height="70.3125" fill="white" transform="translate(0.875 0.75)"/>
</clipPath>
</defs>
</svg>
