<svg width="72" height="72" viewBox="0 0 72 72" fill="none" xmlns="http://www.w3.org/2000/svg">
<g clip-path="url(#clip0_420_437)">
<path d="M36.0312 71.0625C55.4475 71.0625 71.1875 55.3225 71.1875 35.9062C71.1875 16.49 55.4475 0.75 36.0312 0.75C16.615 0.75 0.875 16.49 0.875 35.9062C0.875 55.3225 16.615 71.0625 36.0312 71.0625Z" fill="#F0F0F0"/>
<path d="M71.1875 35.9062C71.1875 21.9682 63.0762 9.92496 51.3165 4.23843V67.5739C63.0762 61.8875 71.1875 49.8443 71.1875 35.9062V35.9062Z" fill="#D80027"/>
<path d="M0.875 35.9062C0.875 49.8443 8.98634 61.8875 20.746 67.5741V4.23843C8.98634 9.92496 0.875 21.9682 0.875 35.9062Z" fill="#6DA544"/>
<path d="M26.8601 35.9063C26.8601 40.9714 30.9662 45.0775 36.0314 45.0775C41.0965 45.0775 45.2026 40.9714 45.2026 35.9063V32.8492H26.8601V35.9063Z" fill="#6DA544"/>
<path d="M48.2594 29.7921H39.0882C39.0882 28.1038 37.7194 26.735 36.0311 26.735C34.3427 26.735 32.974 28.1038 32.974 29.7921H23.8027C23.8027 31.4806 25.2734 32.8492 26.9616 32.8492H26.8598C26.8598 34.5376 28.2284 35.9063 29.9169 35.9063C29.9169 37.5947 31.2855 38.9633 32.974 38.9633H39.0882C40.7766 38.9633 42.1452 37.5947 42.1452 35.9063C43.8337 35.9063 45.2023 34.5376 45.2023 32.8492H45.1004C46.7889 32.8492 48.2594 31.4806 48.2594 29.7921Z" fill="#FF9811"/>
</g>
<defs>
<clipPath id="clip0_420_437">
<rect width="70.3125" height="70.3125" fill="white" transform="translate(0.875 0.75)"/>
</clipPath>
</defs>
</svg>

