<svg width="72" height="72" viewBox="0 0 72 72" fill="none" xmlns="http://www.w3.org/2000/svg">
<g clip-path="url(#clip0_420_437)">
<path d="M36.0312 71.0625C55.4475 71.0625 71.1875 55.3225 71.1875 35.9062C71.1875 16.49 55.4475 0.75 36.0312 0.75C16.615 0.75 0.875 16.49 0.875 35.9062C0.875 55.3225 16.615 71.0625 36.0312 71.0625Z" fill="#D80027"/>
<path d="M36.0313 52.7201C45.3173 52.7201 52.8452 45.1923 52.8452 35.9062C52.8452 26.6202 45.3173 19.0923 36.0313 19.0923C26.7452 19.0923 19.2174 26.6202 19.2174 35.9062C19.2174 45.1923 26.7452 52.7201 36.0313 52.7201Z" fill="#F0F0F0"/>
<path d="M38.1027 29.4773L40.9871 33.4523L45.6586 31.9376L42.7697 35.9091L45.6538 39.884L40.9838 38.3635L38.0948 42.335L38.0979 37.424L33.428 35.9035L38.0996 34.3888L38.1027 29.4773Z" fill="#D80027"/>
<path d="M39.8526 45.8417C34.3655 45.8417 29.9171 41.3934 29.9171 35.9063C29.9171 30.4191 34.3655 25.9708 39.8526 25.9708C41.5635 25.9708 43.1734 26.4034 44.5788 27.165C42.374 25.0088 39.3589 23.6779 36.0313 23.6779C29.278 23.6779 23.8031 29.1527 23.8031 35.9061C23.8031 42.6595 29.278 48.1343 36.0313 48.1343C39.3589 48.1343 42.3741 46.8035 44.5788 44.6472C43.1734 45.4091 41.5635 45.8417 39.8526 45.8417Z" fill="#D80027"/>
</g>
<defs>
<clipPath id="clip0_420_437">
<rect width="70.3125" height="70.3125" fill="white" transform="translate(0.875 0.75)"/>
</clipPath>
</defs>
</svg>
