<svg width="72" height="72" viewBox="0 0 72 72" fill="none" xmlns="http://www.w3.org/2000/svg">
<g clip-path="url(#clip0_420_437)">
<path d="M36.0312 71.0625C55.4475 71.0625 71.1875 55.3225 71.1875 35.9062C71.1875 16.49 55.4475 0.75 36.0312 0.75C16.615 0.75 0.875 16.49 0.875 35.9062C0.875 55.3225 16.615 71.0625 36.0312 71.0625Z" fill="#F0F0F0"/>
<path d="M28.3888 31.3207H70.89C68.6429 14.0712 53.8933 0.75 36.0313 0.75C33.4063 0.75 30.8496 1.04018 28.3887 1.58565V31.3207H28.3888Z" fill="#D80027"/>
<path d="M19.2174 31.3206V5.02466C9.5641 10.2918 2.65343 19.953 1.17261 31.3207H19.2174V31.3206Z" fill="#D80027"/>
<path d="M19.2172 40.4918H1.17261C2.65343 51.8595 9.5641 61.5207 19.2174 66.7877L19.2172 40.4918Z" fill="#D80027"/>
<path d="M28.3887 40.4919V70.2268C30.8496 70.7723 33.4063 71.0625 36.0313 71.0625C53.8933 71.0625 68.6429 57.7413 70.89 40.4918H28.3887V40.4919Z" fill="#D80027"/>
</g>
<defs>
<clipPath id="clip0_420_437">
<rect width="70.3125" height="70.3125" fill="white" transform="translate(0.875 0.75)"/>
</clipPath>
</defs>
</svg>
