<svg width="50" height="51" viewBox="0 0 50 51" fill="none" xmlns="http://www.w3.org/2000/svg">
<g clip-path="url(#clip0_412_296)">
<path d="M35.8695 3.29878C32.5828 1.70952 28.8955 0.818115 25 0.818115C21.1045 0.818115 17.4172 1.70952 14.1305 3.29878L11.9565 25.8181L14.1305 48.3375C17.4172 49.9267 21.1045 50.8181 25 50.8181C28.8955 50.8181 32.5828 49.9267 35.8695 48.3375L38.0435 25.8181L35.8695 3.29878Z" fill="#D80027"/>
<path d="M14.1305 3.29968C5.76816 7.34334 0 15.9067 0 25.8181C0 35.7296 5.76816 44.2929 14.1305 48.3366V3.29968Z" fill="black"/>
<path d="M35.8695 3.29968V48.3366C44.2318 44.2929 50 35.7296 50 25.8181C50 15.9067 44.2318 7.34334 35.8695 3.29968Z" fill="#496E2D"/>
<path d="M25 17.1226C20.1974 17.1226 16.3044 21.0157 16.3044 25.8182C16.3044 30.6206 20.1975 34.5138 25 34.5138C29.8024 34.5138 33.6956 30.6206 33.6956 25.8182C33.6956 21.0157 29.8025 17.1226 25 17.1226ZM25 31.2529C21.9984 31.2529 19.5652 28.8196 19.5652 25.8182C19.5652 22.8167 21.9985 20.3834 25 20.3834C28.0015 20.3834 30.4348 22.8167 30.4348 25.8182C30.4348 28.8196 28.0016 31.2529 25 31.2529Z" fill="#FFDA44"/>
<path d="M25 22.5574C23.7993 22.5574 22.826 23.5306 22.826 24.7313V27.9921H27.1739V24.7313C27.1739 23.5306 26.2007 22.5574 25 22.5574V22.5574Z" fill="#FFDA44"/>
</g>
<defs>
<clipPath id="clip0_412_296">
<rect width="50" height="50" fill="white" transform="translate(0 0.818115)"/>
</clipPath>
</defs>
</svg>
