<svg width="50" height="51" viewBox="0 0 50 51" fill="none" xmlns="http://www.w3.org/2000/svg">
<g clip-path="url(#clip0_412_296)">
<path d="M25 0.818115C38.807 0.818115 50 12.0111 50 25.8181C50 39.6251 38.807 50.8181 25 50.8181C25 49.7312 21.7392 25.8181 21.7392 25.8181L25 0.818115Z" fill="#F0F0F0"/>
<path d="M25 50.8181C11.193 50.8181 0 39.6251 0 25.8181C0 12.0111 11.193 0.818115 25 0.818115" fill="#496E2D"/>
<path d="M30.3714 21.0228L28.3202 23.8495L24.9983 22.7721L27.0528 25.5964L25.0018 28.423L28.3225 27.3419L30.377 30.166L30.3748 26.6737L33.6956 25.5925L30.3738 24.5153L30.3714 21.0228Z" fill="#D80027"/>
<path d="M27.0739 32.8834C23.172 32.8834 20.0087 29.7201 20.0087 25.8181C20.0087 21.9162 23.172 18.7529 27.0739 18.7529C28.2905 18.7529 29.4354 19.0605 30.4348 19.6021C28.8668 18.0688 26.7227 17.1224 24.3566 17.1224C19.554 17.1224 15.6609 21.0156 15.6609 25.818C15.6609 30.6205 19.5541 34.5136 24.3566 34.5136C26.7228 34.5136 28.8669 33.5673 30.4348 32.034C29.4354 32.5758 28.2905 32.8834 27.0739 32.8834Z" fill="#D80027"/>
</g>
<defs>
<clipPath id="clip0_412_296">
<rect width="50" height="50" fill="white" transform="translate(0 0.818115)"/>
</clipPath>
</defs>
</svg>
